<svg width="75" height="75" viewBox="0 0 75 75" fill="none" xmlns="http://www.w3.org/2000/svg">
<rect width="75" height="75" fill="white"/>
<path d="M70 23.3079V52.8049C70 57.9373 65.8728 62.1128 60.801 62.1128H14.199C9.12725 62.1128 5 57.9373 5 52.8049V23.3079C5 18.1755 9.12725 14 14.199 14H60.801C65.8728 14 70 18.1755 70 23.3079V23.3079Z" fill="#25D9F8"/>
<path d="M70 23.3079V52.8049C70 57.9373 65.8728 62.1128 60.801 62.1128H37.5V14H60.801C65.8728 14 70 18.1755 70 23.3079V23.3079Z" fill="#0CC5E4"/>
<path d="M23.5554 50.0296L13.6023 39.96C12.8586 39.2077 12.8586 37.9879 13.6023 37.2355L24.626 26.0828C25.3696 25.3305 26.5754 25.3305 27.3191 26.0828C28.0628 26.8352 28.0628 28.055 27.3191 28.8074L17.642 38.5977L26.2485 47.305C26.9922 48.0574 26.9922 49.2772 26.2485 50.0296C25.5049 50.782 24.2991 50.7821 23.5554 50.0296Z" fill="#F0F7FF"/>
<path d="M47.6808 50.0297C46.9371 49.2773 46.9371 48.0575 47.6808 47.3051L57.3579 37.5147L48.7514 28.8074C48.0077 28.055 48.0077 26.8352 48.7514 26.0828C49.495 25.3305 50.7008 25.3305 51.4445 26.0828L61.3976 36.1524C62.1413 36.9048 62.1413 38.1245 61.3976 38.8769L50.3739 50.0296C49.6304 50.7821 48.4245 50.7822 47.6808 50.0297V50.0297Z" fill="#DFE7F4"/>
<path d="M44.2972 24.2749L37.5001 43.746L34.2272 53.1207C33.8728 54.1338 32.7745 54.6495 31.7973 54.2959C30.8058 53.9414 30.2853 52.8407 30.6357 51.8376L37.5001 32.1738L40.7056 22.9918C41.056 21.9887 42.144 21.4621 43.1355 21.8166C44.127 22.1711 44.6475 23.2718 44.2972 24.2749V24.2749Z" fill="#F0F7FF"/>
<path d="M44.2971 24.2749L37.5 43.746V32.1738L40.7056 22.9918C41.056 21.9887 42.1439 21.4621 43.1355 21.8166C44.127 22.1711 44.6475 23.2718 44.2971 24.2749V24.2749Z" fill="#DFE7F4"/>
</svg>
