<svg width="75" height="75" viewBox="0 0 75 75" fill="none" xmlns="http://www.w3.org/2000/svg">
<rect width="75" height="75" fill="white"/>
<path d="M59.989 27.7687L43.739 43.1687L37.6667 66.3592C41.1755 68.6535 45.358 70.0001 49.8543 70.0001C62.1746 70.0001 72.3335 59.9767 72.3335 47.6563C72.3335 38.9861 67.2241 31.4713 59.989 27.7687Z" fill="#25D9F8"/>
<path d="M35.657 43.1687L15.3445 27.7687C8.10942 31.4712 3 38.986 3 47.6562C3 59.9766 13.1588 70 25.4792 70C29.9755 70 34.158 68.6534 37.6667 66.359L35.657 43.1687Z" fill="#FF641A"/>
<path d="M60.0106 27.3438C60.0106 27.5062 60.0106 27.6282 59.97 27.7499L37.6668 37.0937L15.3636 27.7499C15.323 27.6282 15.323 27.5062 15.323 27.3438C15.323 15.0343 25.3573 5 37.6668 5C49.9763 5 60.0106 15.0343 60.0106 27.3438Z" fill="#FFDA2D"/>
<path d="M60.0105 27.3438C60.0105 27.5062 60.0105 27.6282 59.9699 27.7499L37.6667 37.0937V5C49.9763 5 60.0105 15.0343 60.0105 27.3438Z" fill="#FDBF00"/>
<path d="M49.8543 25.3125C45.358 25.3125 41.1755 26.6591 37.6667 28.9535L47.8015 47.2313C54.9168 43.59 59.8281 36.258 59.989 27.7687C56.9428 26.21 53.5044 25.3125 49.8543 25.3125Z" fill="#9CDD05"/>
<path d="M25.4792 25.3125C21.8291 25.3125 18.3907 26.21 15.3445 27.7687C15.5054 36.258 20.4167 43.59 27.532 47.2313L37.6667 28.9535C34.158 26.6591 29.9755 25.3125 25.4792 25.3125Z" fill="#FF9100"/>
<path d="M47.823 47.6565C47.823 55.4971 43.7605 62.3628 37.6668 66.3439C31.573 62.3628 27.5105 55.4971 27.5105 47.6565C27.5105 47.4938 27.5105 47.3721 27.5511 47.2501H47.7824C47.823 47.3721 47.823 47.4938 47.823 47.6565Z" fill="#979FEF"/>
<path d="M47.823 47.6565C47.823 55.4971 43.7605 62.3628 37.6667 66.3439V47.2501H47.7824C47.823 47.3721 47.823 47.4938 47.823 47.6565Z" fill="#737EE6"/>
<path d="M47.7824 47.2501C44.7356 48.7938 41.3232 49.6877 37.6668 49.6877C34.0104 49.6877 30.598 48.7938 27.5511 47.2501C27.6729 39.5721 31.6543 32.8689 37.6668 28.9688C43.6792 32.8689 47.6607 39.5721 47.7824 47.2501Z" fill="#47568C"/>
<path d="M47.7824 47.2501C44.7355 48.7938 41.3231 49.6877 37.6667 49.6877V28.9688C43.6791 32.8689 47.6607 39.5721 47.7824 47.2501Z" fill="#2C3B73"/>
</svg>
