<svg width="75" height="75" viewBox="0 0 75 75" fill="none" xmlns="http://www.w3.org/2000/svg">
<rect width="75" height="75" fill="white"/>
<path d="M68.8181 36.1605H51.9164C51.3739 36.1605 50.9044 35.7872 50.7786 35.2594C49.5929 30.2893 45.6643 26.3731 40.6875 25.205C40.1578 25.0806 39.7821 24.6104 39.7821 24.0662V7.17084C39.7821 6.47311 40.3883 5.93331 41.0821 6.00669C48.4648 6.7891 55.3059 10.0418 60.6304 15.3649C65.9399 20.6757 69.1904 27.4973 69.9822 34.8589C70.0567 35.5533 69.5165 36.1605 68.8181 36.1605Z" fill="#FF641A"/>
<path d="M39.7852 24.0754V20.5971C47.9221 21.6024 54.3757 28.0402 55.4061 36.1698H51.9196C51.3771 36.1698 50.9076 35.7964 50.7818 35.2687C49.5961 30.2986 45.6675 26.3823 40.6907 25.2143C40.1608 25.0898 39.7852 24.6195 39.7852 24.0754Z" fill="#FF9100"/>
<path d="M69.9934 41.8496C69.3424 48.0863 66.9284 53.9382 62.9939 58.8166C62.5554 59.3601 61.7442 59.4078 61.2505 58.914L51.788 49.4516L49.2982 46.9618C48.9129 46.5765 48.8477 45.9783 49.1339 45.5146C49.8962 44.2806 50.4658 42.9159 50.8013 41.4622C50.9242 40.9297 51.3952 40.551 51.9416 40.551H68.8294C69.5265 40.5509 70.0659 41.1562 69.9934 41.8496Z" fill="#FFDA2D"/>
<path d="M55.4247 40.5509C55.0369 43.8802 53.7402 46.9315 51.788 49.4516L49.2982 46.9618C48.9129 46.5765 48.8477 45.9783 49.1339 45.5146C49.8962 44.2806 50.4658 42.9159 50.8013 41.4622C50.9242 40.9297 51.3952 40.551 51.9416 40.551H55.4247V40.5509Z" fill="#FDBF00"/>
<path d="M58.1516 62.0244C58.6446 62.5174 58.598 63.327 58.0563 63.7659C52.2776 68.4482 45.1287 70.995 37.5868 70.995C28.8837 70.995 20.7002 67.6042 14.5448 61.4504C8.42411 55.3299 5.0384 47.2039 5.00031 38.5558C4.9621 29.8709 8.40354 21.5061 14.5449 15.3649C19.8685 10.0412 26.7105 6.78855 34.0942 6.00665C34.787 5.9334 35.3916 6.4746 35.3916 7.17119V24.0663C35.3916 24.6115 35.0144 25.0812 34.4836 25.2059C28.496 26.6125 24.0248 31.9968 24.0248 38.4085C24.0248 45.8852 30.1084 51.9702 37.5866 51.9702C40.2159 51.9702 42.6721 51.2172 44.7527 49.917C45.2167 49.627 45.8181 49.6913 46.2049 50.0781L58.1516 62.0244Z" fill="#25D9F8"/>
<path d="M46.2052 50.0781L48.7002 52.5732C45.6367 54.9929 41.7645 56.4386 37.5557 56.4395C27.5877 56.4417 19.5837 48.4618 19.5573 38.494C19.5327 29.2654 26.4562 21.6479 35.3919 20.5792V24.0663C35.3919 24.6114 35.0147 25.0811 34.4841 25.2058C28.4965 26.6124 24.0253 31.9968 24.0253 38.4084C24.0253 45.8851 30.1089 51.9701 37.587 51.9701C40.2164 51.9701 42.6725 51.2172 44.7531 49.9169C45.217 49.6271 45.8183 49.6913 46.2052 50.0781Z" fill="#0CC5E4"/>
</svg>
