<svg width="75" height="75" viewBox="0 0 75 75" fill="none" xmlns="http://www.w3.org/2000/svg">
<rect width="75" height="75" fill="white"/>
<path d="M53.4648 26.2012H22.2344C21.1827 26.2012 20.3301 27.0538 20.3301 28.1055V55.1186C20.3301 56.1703 21.1827 57.0229 22.2344 57.0229H24.6465V64.2871C24.6465 67.4372 27.2093 70 30.3594 70C33.5095 70 36.0723 67.4372 36.0723 64.2871V57.0229H39.8809V64.2871C39.8809 67.4372 42.4437 70 45.5938 70C48.7438 70 51.3066 67.4372 51.3066 64.2871V57.0229H53.4648C54.5165 57.0229 55.3691 56.1703 55.3691 55.1186V28.1055C55.3691 27.0538 54.5165 26.2012 53.4648 26.2012Z" fill="#9CDD05"/>
<path d="M12.7129 26.2012C9.5628 26.2012 7 28.764 7 31.9141V43.2129C7 46.363 9.5628 48.9258 12.7129 48.9258C15.863 48.9258 18.4258 46.363 18.4258 43.2129V31.9141C18.4258 28.764 15.863 26.2012 12.7129 26.2012Z" fill="#9CDD05"/>
<path d="M54.9384 5.55783C54.1948 4.81414 52.989 4.81414 52.2453 5.55783L48.8822 8.92095C45.868 6.47088 42.0276 5 37.8496 5C33.7363 5 29.9502 6.42556 26.9577 8.80758L23.7079 5.55783C22.9644 4.81414 21.7586 4.81414 21.0149 5.55783C20.2712 6.30152 20.2712 7.5072 21.0149 8.25089L24.251 11.4871C21.801 14.5012 20.3301 18.3416 20.3301 22.5195C20.3301 23.5712 21.1827 24.4238 22.2344 24.4238H53.4648C54.5165 24.4238 55.3691 23.5712 55.3691 22.5195C55.3691 18.4062 53.9436 14.6201 51.5616 11.6276L54.9384 8.25076C55.682 7.5072 55.682 6.30152 54.9384 5.55783Z" fill="#9CDD05"/>
<path d="M53.5518 26.2012H38V57.0229H39.9678V64.2871C39.9678 67.4372 42.5306 70 45.6807 70C48.8308 70 51.3936 67.4372 51.3936 64.2871V57.0229H53.5518C54.6034 57.0229 55.4561 56.1703 55.4561 55.1186V28.1055C55.4561 27.0538 54.6034 26.2012 53.5518 26.2012Z" fill="#8ECB02"/>
<path d="M63.2002 26.2012C60.0501 26.2012 57.4873 28.764 57.4873 31.9141V43.2129C57.4873 46.363 60.0501 48.9258 63.2002 48.9258C66.3503 48.9258 68.9131 46.363 68.9131 43.2129V31.9141C68.9131 28.764 66.3503 26.2012 63.2002 26.2012Z" fill="#8ECB02"/>
<path d="M55.0253 8.25083C55.769 7.50713 55.769 6.30146 55.0253 5.55777C54.2817 4.81408 53.0759 4.81408 52.3322 5.55777L48.9691 8.92088C45.9702 6.48326 42.1534 5.01555 38 5.0007V24.4238H53.5518C54.6034 24.4238 55.4561 23.5711 55.4561 22.5195C55.4561 18.4062 54.0305 14.6201 51.6485 11.6275L55.0253 8.25083Z" fill="#8ECB02"/>
</svg>
