<svg width="75" height="75" viewBox="0 0 75 75" fill="none" xmlns="http://www.w3.org/2000/svg">
<path d="M75 37.5C75 58.2107 58.2107 75 37.5 75C16.7893 75 0 58.2107 0 37.5C0 16.7893 16.7893 0 37.5 0C58.2107 0 75 16.7893 75 37.5Z" fill="#F99D1C"/>
<mask id="mask0" style="mask-type:alpha" maskUnits="userSpaceOnUse" x="0" y="0" width="75" height="75">
<path d="M75 37.5C75 58.2107 58.2107 75 37.5 75C16.7893 75 0 58.2107 0 37.5C0 16.7893 16.7893 0 37.5 0C58.2107 0 75 16.7893 75 37.5Z" fill="#F9A31A"/>
</mask>
<g mask="url(#mask0)">
<path d="M16.5936 12.8771C16.5936 13.7931 15.8511 14.5356 14.935 14.5356C14.019 14.5356 13.2764 13.7931 13.2764 12.8771C13.2764 11.9611 14.0189 11.2184 14.935 11.2184C15.8511 11.2184 16.5936 11.9611 16.5936 12.8771Z" fill="#FF4155"/>
<path d="M19.5208 14.5356C20.4368 14.5356 21.1793 13.7931 21.1793 12.8771C21.1793 11.9611 20.4368 11.2186 19.5208 11.2186C18.6048 11.2186 17.8623 11.9611 17.8623 12.8771C17.8623 13.7931 18.6048 14.5356 19.5208 14.5356Z" fill="#FFDD40"/>
<path d="M65.2512 55.6548C66.9457 54.3365 68.5321 52.8856 69.9902 51.3135V30.1492H55.7604C54.9092 30.1492 54.2166 29.4566 54.2166 28.6053V31.9255C54.2166 31.0742 54.9092 30.3817 55.7604 30.3817H69.9902V11.9608C69.9902 8.26967 66.9979 5.27737 63.3068 5.27737H11.8173C8.12621 5.27737 5.13391 8.26967 5.13391 11.9608V40.9889C6.40481 43.7433 7.98335 46.3265 9.82536 48.6945L65.2512 55.6548Z" fill="#167CC1"/>
<path d="M31.6846 52.6048C31.6986 52.5505 31.7025 52.4942 31.6957 52.4384L27.4535 34.8251C27.4411 34.7231 27.3919 34.6302 27.3195 34.5571C26.1389 33.3651 26.7831 32.0544 27.0867 31.5794C27.1646 31.4573 27.1807 31.3057 27.1263 31.1716L24.5304 24.762C24.5146 24.7231 24.493 24.6865 24.4667 24.6538C21.2659 20.6395 23.2646 17.1205 23.9207 16.1733C24.0193 16.0311 24.0168 15.8481 23.9361 15.6953C23.7124 15.272 23.9291 14.8205 24.0447 14.63C24.0863 14.5613 24.1068 14.4816 24.1068 14.4013V11.3863C24.1068 11.2863 24.0717 11.1896 24.0102 11.1106C23.7079 10.7213 23.8243 10.316 23.9522 10.0688C24.0313 9.91577 24.0205 9.7318 23.9172 9.59394C22.5089 7.71371 23.3495 6.19999 23.835 5.58083C23.9048 5.49182 23.9346 5.38395 23.9275 5.2785H11.8171C8.12596 5.27834 5.13367 8.27064 5.13367 11.9617V47.5717C6.40456 50.3262 7.9831 52.9094 9.82511 55.2774L31.109 57.9502C31.0566 55.1974 31.5717 53.0413 31.6846 52.6048Z" fill="#0E62A8"/>
<path d="M65.435 36.1584H55.7593C54.9081 36.1584 54.2154 35.4658 54.2154 34.6145V31.9255C54.2154 31.0741 54.9081 30.3816 55.7593 30.3816H65.435C65.435 22.1395 65.435 16.2075 65.435 15.5853H9.68701V55.9653C16.909 65.3574 28.2566 69.972 41.0202 69.972C50.2362 69.972 58.7148 66.8159 65.435 61.526C65.435 54.9214 65.435 45.6225 65.435 36.1584Z" fill="#E9EFFF"/>
<path d="M63.3059 9.83148H11.8166C10.6453 9.83148 9.68726 10.7897 9.68726 11.9608V15.9225H65.4353V11.9608C65.4351 10.7897 64.4768 9.83148 63.3059 9.83148V9.83148Z" fill="#2A428C"/>
<path d="M24.0442 14.629C24.0858 14.5603 24.1062 14.4806 24.1062 14.4003V11.3853C24.1062 11.2853 24.0711 11.1886 24.0097 11.1096C23.7073 10.7203 23.8237 10.315 23.9516 10.0678C23.99 9.99346 24.0064 9.91171 24.0021 9.83157H11.8165C10.6453 9.83157 9.68701 10.7898 9.68701 11.9609V15.9226H23.9943C23.9934 15.8447 23.9734 15.7662 23.9355 15.6943C23.712 15.271 23.9286 14.8195 24.0442 14.629V14.629Z" fill="#1C2E7A"/>
<path d="M24.1065 14.5357C25.0225 14.5357 25.765 13.7931 25.765 12.8772C25.765 11.9612 25.0225 11.2186 24.1065 11.2186C23.1905 11.2186 22.448 11.9612 22.448 12.8772C22.448 13.7931 23.1905 14.5357 24.1065 14.5357Z" fill="#38C674"/>
<path d="M47.8538 14.1421H31.2117C30.5131 14.1421 29.9467 13.5757 29.9467 12.877C29.9467 12.1783 30.5131 11.6119 31.2117 11.6119H47.8538C48.5525 11.6119 49.1189 12.1783 49.1189 12.877C49.1189 13.5758 48.5525 14.1421 47.8538 14.1421V14.1421Z" fill="#3C58A0"/>
<path d="M61.3728 14.1421H59.9306C59.232 14.1421 58.6655 13.5757 58.6655 12.877C58.6655 12.1783 59.232 11.6119 59.9306 11.6119H61.3728C62.0714 11.6119 62.6378 12.1783 62.6378 12.877C62.6378 13.5758 62.0714 14.1421 61.3728 14.1421V14.1421Z" fill="#3C58A0"/>
<path d="M56.3587 14.1421H54.9166C54.2179 14.1421 53.6515 13.5757 53.6515 12.877C53.6515 12.1783 54.2179 11.6119 54.9166 11.6119H56.3587C57.0574 11.6119 57.6238 12.1783 57.6238 12.877C57.6238 13.5758 57.0574 14.1421 56.3587 14.1421V14.1421Z" fill="#3C58A0"/>
<path d="M65.4017 23.7774H70V53.9335H65.4017V23.7774Z" fill="#167CC1"/>
<rect x="37.5983" y="25.4884" width="27.8035" height="33.2573" fill="#E9EFFF"/>
<path d="M65.2502 79.5248C66.9447 78.2065 68.5311 76.7557 69.9892 75.1836V54.0192H55.7595C54.9083 54.0192 54.2156 53.3266 54.2156 52.4753V31.926C54.2156 31.0747 54.9083 30.3822 55.7595 30.3822H69.9892V11.9613C69.9892 8.27016 66.9969 5.27786 63.3058 5.27786H11.8163C8.12523 5.27786 5.13293 8.27016 5.13293 11.9613V64.8589C6.40383 67.6133 7.98237 70.1966 9.82438 72.5645L65.2502 79.5248Z" fill="#167CC1"/>
<path d="M31.6839 69.8927C31.6979 69.8383 31.7018 69.7821 31.695 69.7263L27.4528 34.8253C27.4404 34.7233 27.3912 34.6304 27.3188 34.5574C26.1382 33.3653 26.7823 32.0546 27.086 31.5796C27.1638 31.4575 27.18 31.3059 27.1256 31.1718L24.5297 24.7622C24.5138 24.7233 24.4922 24.6867 24.466 24.654C21.2652 20.6397 23.2639 17.1207 23.92 16.1736C24.0185 16.0313 24.0161 15.8483 23.9353 15.6955C23.7117 15.2722 23.9284 14.8208 24.044 14.6302C24.0856 14.5615 24.1061 14.4818 24.1061 14.4015V11.3865C24.1061 11.2865 24.0709 11.1898 24.0095 11.1108C23.7072 10.7215 23.8236 10.3162 23.9514 10.069C24.0306 9.91599 24.0198 9.73201 23.9165 9.59415C22.5082 7.71393 23.3487 6.2002 23.8342 5.58104C23.904 5.49204 23.9339 5.38417 23.9268 5.27872H11.8163C8.12523 5.27856 5.13293 8.27085 5.13293 11.962V64.8596C6.40383 67.614 7.98237 70.1972 9.82438 72.5652L31.1082 75.2381C31.0558 72.4852 31.571 70.3291 31.6839 69.8927V69.8927Z" fill="#0E62A8"/>
<path d="M65.4353 54.0187H55.7596C54.9084 54.0187 54.2157 53.3261 54.2157 52.4748V31.9255C54.2157 31.0742 54.9084 30.3817 55.7596 30.3817H65.4353C65.4353 22.1396 65.4353 16.2075 65.4353 15.5853H9.68726V72.3855C16.9092 81.7776 28.2568 87.8324 41.0204 87.8324C50.2364 87.8324 58.7151 84.6763 65.4353 79.3863C65.4353 72.7817 65.4353 63.4828 65.4353 54.0187V54.0187Z" fill="#E9EFFF"/>
<path d="M63.3059 9.83151H11.8166C10.6453 9.83151 9.68726 10.7898 9.68726 11.9609V15.9225H65.4353V11.9609C65.4351 10.7898 64.4768 9.83151 63.3059 9.83151V9.83151Z" fill="#2A428C"/>
<path d="M24.0444 14.629C24.086 14.5604 24.1065 14.4807 24.1065 14.4004V11.3854C24.1065 11.2854 24.0713 11.1887 24.0099 11.1097C23.7076 10.7204 23.824 10.3151 23.9519 10.0679C23.9902 9.99355 24.0067 9.9118 24.0023 9.83167H11.8168C10.6455 9.83167 9.68726 10.7899 9.68726 11.961V15.9227H23.9946C23.9936 15.8448 23.9736 15.7663 23.9357 15.6944C23.7123 15.2711 23.9288 14.8196 24.0444 14.629V14.629Z" fill="#1C2E7A"/>
<path d="M24.1063 14.5357C25.0222 14.5357 25.7648 13.7932 25.7648 12.8772C25.7648 11.9612 25.0222 11.2187 24.1063 11.2187C23.1903 11.2187 22.4478 11.9612 22.4478 12.8772C22.4478 13.7932 23.1903 14.5357 24.1063 14.5357Z" fill="#38C674"/>
<path d="M16.5934 12.8772C16.5934 13.7932 15.8509 14.5357 14.9349 14.5357C14.0189 14.5357 13.2762 13.7932 13.2762 12.8772C13.2762 11.9612 14.0188 11.2185 14.9349 11.2185C15.8509 11.2185 16.5934 11.9612 16.5934 12.8772Z" fill="#FF4155"/>
<path d="M19.5207 14.5358C20.4367 14.5358 21.1792 13.7932 21.1792 12.8773C21.1792 11.9613 20.4367 11.2187 19.5207 11.2187C18.6047 11.2187 17.8622 11.9613 17.8622 12.8773C17.8622 13.7932 18.6047 14.5358 19.5207 14.5358Z" fill="#FFDD40"/>
<path d="M47.8537 14.1421H31.2116C30.513 14.1421 29.9465 13.5757 29.9465 12.877C29.9465 12.1784 30.513 11.612 31.2116 11.612H47.8537C48.5524 11.612 49.1188 12.1784 49.1188 12.877C49.1188 13.5759 48.5524 14.1421 47.8537 14.1421V14.1421Z" fill="#3C58A0"/>
<path d="M61.3728 14.1421H59.9306C59.232 14.1421 58.6655 13.5757 58.6655 12.877C58.6655 12.1784 59.232 11.612 59.9306 11.612H61.3728C62.0714 11.612 62.6378 12.1784 62.6378 12.877C62.6378 13.5759 62.0714 14.1421 61.3728 14.1421V14.1421Z" fill="#3C58A0"/>
<path d="M56.3587 14.1421H54.9166C54.2179 14.1421 53.6515 13.5757 53.6515 12.877C53.6515 12.1784 54.2179 11.612 54.9166 11.612H56.3587C57.0574 11.612 57.6238 12.1784 57.6238 12.877C57.6238 13.5759 57.0574 14.1421 56.3587 14.1421V14.1421Z" fill="#3C58A0"/>
<rect x="65.4016" y="23.7775" width="4.59827" height="38.0694" fill="#167CC1"/>
<path d="M55.8356 28.0674C55.8356 31.0709 54.6222 33.7982 52.6517 35.7687C50.6815 37.7392 47.9542 38.9526 44.9504 38.9526V28.0674H55.8356Z" fill="#2C2F33"/>
<path d="M19.2914 28.0674C19.2914 31.0709 20.5048 33.7982 22.4752 35.7687C24.4454 37.7392 27.1728 38.9526 30.1765 38.9526V28.0674H19.2914Z" fill="#2C2F33"/>
<path d="M55.8356 45.3203C55.8356 48.3237 54.6222 51.0511 52.6517 53.0215C50.6815 54.992 47.9542 56.2054 44.9504 56.2054V45.3203H55.8356Z" fill="#2C2F33"/>
<path d="M19.2914 45.3203C19.2914 48.3237 20.5048 51.0511 22.4752 53.0215C24.4454 54.992 27.1728 56.2054 30.1765 56.2054V45.3203H19.2914Z" fill="#2C2F33"/>
<path d="M55.8356 62.5731C55.8356 65.5766 54.6222 68.3039 52.6517 70.2743C50.6815 72.2448 47.9542 73.4582 44.9504 73.4582V62.5731H55.8356Z" fill="#2C2F33"/>
<path d="M19.2914 62.5731C19.2914 65.5766 20.5048 68.3039 22.4752 70.2743C24.4454 72.2448 27.1728 73.4582 30.1765 73.4582V62.5731H19.2914Z" fill="#2C2F33"/>
<path d="M51.1901 24.6368V76.8674C51.1901 77.9736 50.2967 78.8884 49.1902 78.8884H25.9364C24.83 78.8884 23.9365 77.9736 23.9365 76.8674V24.6368C23.9365 23.5304 24.83 22.6372 25.9364 22.6372H49.1902C50.2967 22.6372 51.1901 23.5304 51.1901 24.6368V24.6368Z" fill="#3B3E42"/>
<path d="M44.451 33.8214C44.451 37.634 41.3587 40.7087 37.5634 40.7087C33.7507 40.7087 30.6758 37.634 30.6758 33.8214C30.6758 30.0263 33.7505 26.9341 37.5634 26.9341C41.3584 26.9341 44.451 30.0263 44.451 33.8214Z" fill="#71C7B2"/>
<path opacity="0.5" d="M33.563 33.0093C34.1819 33.6282 35.4503 33.363 36.3963 32.4171C37.3422 31.4711 37.6074 30.2027 36.9885 29.5838C36.3697 28.965 35.1012 29.2301 34.1553 30.1761C33.2093 31.122 32.9442 32.3905 33.563 33.0093Z" fill="white"/>
<path d="M44.451 50.7628C44.451 54.5755 41.3587 57.6501 37.5634 57.6501C33.7507 57.6501 30.6758 54.5752 30.6758 50.7628C30.6758 46.9677 33.7505 43.8755 37.5634 43.8755C41.3584 43.8755 44.451 46.9677 44.451 50.7628Z" fill="#FFCB46"/>
<path opacity="0.5" d="M33.5622 49.9506C34.181 50.5695 35.4495 50.3043 36.3954 49.3584C37.3414 48.4124 37.6065 47.1439 36.9877 46.5251C36.3689 45.9063 35.1004 46.1714 34.1544 47.1174C33.2085 48.0633 32.9433 49.3318 33.5622 49.9506Z" fill="white"/>
<path d="M44.451 67.7042C44.451 71.5169 41.3587 74.5916 37.5634 74.5916C33.7507 74.5916 30.6758 71.5169 30.6758 67.7042C30.6758 63.9092 33.7505 60.8169 37.5634 60.8169C41.3584 60.8169 44.451 63.9092 44.451 67.7042Z" fill="#ED2E7B"/>
<path opacity="0.5" d="M33.5656 66.8876C34.1844 67.5065 35.4529 67.2413 36.3988 66.2954C37.3448 65.3494 37.6099 64.081 36.9911 63.4621C36.3723 62.8433 35.1038 63.1084 34.1578 64.0544C33.2119 65.0003 32.9467 66.2688 33.5656 66.8876Z" fill="white"/>
</g>
<mask id="mask1" style="mask-type:alpha" maskUnits="userSpaceOnUse" x="5" y="5" width="65" height="46">
<rect x="5.11816" y="5.27779" width="64.8611" height="45.4167" fill="#C4C4C4"/>
</mask>
<g mask="url(#mask1)">
<path d="M16.5727 12.8771C16.5727 13.7931 15.8302 14.5357 14.9142 14.5357C13.9982 14.5357 13.2555 13.7931 13.2555 12.8771C13.2555 11.9611 13.998 11.2185 14.9142 11.2185C15.8302 11.2185 16.5727 11.9611 16.5727 12.8771Z" fill="#FF4155"/>
<path d="M19.4999 14.5357C20.4159 14.5357 21.1585 13.7931 21.1585 12.8772C21.1585 11.9612 20.4159 11.2186 19.4999 11.2186C18.584 11.2186 17.8414 11.9612 17.8414 12.8772C17.8414 13.7931 18.584 14.5357 19.4999 14.5357Z" fill="#FFDD40"/>
<path d="M65.2308 55.6548C66.9253 54.3365 68.5117 52.8857 69.9698 51.3136V30.1492H55.7401C54.8889 30.1492 54.1962 29.4566 54.1962 28.6053V31.9256C54.1962 31.0742 54.8889 30.3817 55.7401 30.3817H69.9698V11.9608C69.9698 8.26969 66.9775 5.27739 63.2864 5.27739H11.7969C8.10582 5.27739 5.11353 8.26969 5.11353 11.9608V40.9889C6.38442 43.7433 7.96296 46.3266 9.80497 48.6945L65.2308 55.6548Z" fill="#167CC1"/>
<path d="M31.6641 52.605C31.6781 52.5506 31.682 52.4943 31.6752 52.4386L27.433 34.8253C27.4206 34.7232 27.3714 34.6303 27.299 34.5573C26.1184 33.3653 26.7626 32.0545 27.0662 31.5795C27.1441 31.4575 27.1602 31.3059 27.1058 31.1717L24.5099 24.7621C24.4941 24.7233 24.4725 24.6867 24.4462 24.6539C21.2454 20.6397 23.2441 17.1206 23.9002 16.1735C23.9987 16.0313 23.9963 15.8483 23.9155 15.6954C23.6919 15.2722 23.9086 14.8207 24.0242 14.6301C24.0658 14.5614 24.0863 14.4818 24.0863 14.4015V11.3864C24.0863 11.2865 24.0511 11.1897 23.9897 11.1107C23.6874 10.7215 23.8038 10.3161 23.9317 10.0689C24.0108 9.91592 24 9.73195 23.8967 9.59409C22.4884 7.71387 23.329 6.20014 23.8144 5.58098C23.8843 5.49198 23.9141 5.38411 23.907 5.27866H11.7966C8.10545 5.27849 5.11316 8.27079 5.11316 11.9619V47.5718C6.38405 50.3263 7.9626 52.9095 9.80461 55.2775L31.0885 57.9504C31.0361 55.1975 31.5512 53.0414 31.6641 52.605Z" fill="#0E62A8"/>
<path d="M65.4143 36.1584H55.7386C54.8874 36.1584 54.1947 35.4659 54.1947 34.6145V31.9255C54.1947 31.0742 54.8874 30.3817 55.7386 30.3817H65.4143C65.4143 22.1396 65.4143 16.2075 65.4143 15.5853H9.66626V55.9653C16.8882 65.3574 28.2358 69.9721 40.9994 69.9721C50.2154 69.9721 58.6941 66.816 65.4143 61.526C65.4143 54.9215 65.4143 45.6226 65.4143 36.1584Z" fill="#E9EFFF"/>
<path d="M63.2849 9.83148H11.7956C10.6243 9.83148 9.66626 10.7897 9.66626 11.9608V15.9225H65.4143V11.9608C65.4141 10.7897 64.4558 9.83148 63.2849 9.83148V9.83148Z" fill="#2A428C"/>
<path d="M24.0234 14.629C24.065 14.5603 24.0855 14.4807 24.0855 14.4004V11.3853C24.0855 11.2854 24.0503 11.1886 23.9889 11.1096C23.6866 10.7204 23.803 10.315 23.9309 10.0678C23.9692 9.9935 23.9857 9.91176 23.9813 9.83162H11.7958C10.6245 9.83162 9.66626 10.7899 9.66626 11.961V15.9226H23.9736C23.9726 15.8448 23.9526 15.7662 23.9147 15.6943C23.6913 15.2711 23.9078 14.8196 24.0234 14.629V14.629Z" fill="#1C2E7A"/>
<path d="M24.0856 14.5357C25.0016 14.5357 25.7442 13.7931 25.7442 12.8772C25.7442 11.9612 25.0016 11.2186 24.0856 11.2186C23.1697 11.2186 22.4271 11.9612 22.4271 12.8772C22.4271 13.7931 23.1697 14.5357 24.0856 14.5357Z" fill="#38C674"/>
<path d="M47.833 14.1421H31.1909C30.4922 14.1421 29.9258 13.5757 29.9258 12.877C29.9258 12.1784 30.4922 11.612 31.1909 11.612H47.833C48.5316 11.612 49.098 12.1784 49.098 12.877C49.098 13.5759 48.5316 14.1421 47.833 14.1421V14.1421Z" fill="#3C58A0"/>
<path d="M61.3519 14.1421H59.9097C59.2111 14.1421 58.6447 13.5757 58.6447 12.877C58.6447 12.1784 59.2111 11.612 59.9097 11.612H61.3519C62.0505 11.612 62.617 12.1784 62.617 12.877C62.617 13.5759 62.0505 14.1421 61.3519 14.1421V14.1421Z" fill="#3C58A0"/>
<path d="M56.3381 14.1421H54.896C54.1973 14.1421 53.6309 13.5757 53.6309 12.877C53.6309 12.1784 54.1973 11.612 54.896 11.612H56.3381C57.0367 11.612 57.6032 12.1784 57.6032 12.877C57.6032 13.5759 57.0367 14.1421 56.3381 14.1421V14.1421Z" fill="#3C58A0"/>
<path d="M65.381 23.7774H69.9793V53.9335H65.381V23.7774Z" fill="#167CC1"/>
<rect x="37.5774" y="25.4884" width="27.8035" height="33.2573" fill="#E9EFFF"/>
<path d="M65.2297 79.525C66.9242 78.2067 68.5106 76.7559 69.9687 75.1838V54.0194H55.739C54.8878 54.0194 54.1951 53.3268 54.1951 52.4755V31.9262C54.1951 31.0749 54.8878 30.3824 55.739 30.3824H69.9687V11.9615C69.9687 8.27036 66.9764 5.27806 63.2853 5.27806H11.7958C8.10472 5.27806 5.11243 8.27036 5.11243 11.9615V64.8591C6.38332 67.6135 7.96186 70.1968 9.80387 72.5647L65.2297 79.525Z" fill="#167CC1"/>
<path d="M31.6635 69.8929C31.6775 69.8386 31.6814 69.7823 31.6746 69.7265L27.4324 34.8256C27.42 34.7235 27.3708 34.6306 27.2984 34.5576C26.1178 33.3656 26.762 32.0548 27.0656 31.5798C27.1434 31.4578 27.1596 31.3062 27.1052 31.172L24.5093 24.7624C24.4935 24.7236 24.4719 24.687 24.4456 24.6542C21.2448 20.64 23.2435 17.1209 23.8996 16.1738C23.9981 16.0316 23.9957 15.8486 23.9149 15.6957C23.6913 15.2725 23.908 14.821 24.0236 14.6304C24.0652 14.5617 24.0857 14.4821 24.0857 14.4018V11.3867C24.0857 11.2868 24.0505 11.19 23.9891 11.111C23.6868 10.7218 23.8032 10.3164 23.9311 10.0692C24.0102 9.91623 23.9994 9.73225 23.8961 9.59439C22.4878 7.71417 23.3283 6.20045 23.8138 5.58129C23.8837 5.49228 23.9135 5.38441 23.9064 5.27896H11.796C8.10484 5.2788 5.11255 8.2711 5.11255 11.9622V64.8598C6.38344 67.6143 7.96199 70.1975 9.80399 72.5655L31.0879 75.2383C31.0355 72.4855 31.5506 70.3294 31.6635 69.8929V69.8929Z" fill="#0E62A8"/>
<path d="M65.4143 54.0187H55.7386C54.8874 54.0187 54.1947 53.3262 54.1947 52.4748V31.9256C54.1947 31.0742 54.8874 30.3817 55.7386 30.3817H65.4143C65.4143 22.1396 65.4143 16.2076 65.4143 15.5853H9.66626V72.3856C16.8882 81.7777 28.2358 87.8324 40.9994 87.8324C50.2154 87.8324 58.6941 84.6763 65.4143 79.3863C65.4143 72.7818 65.4143 63.4829 65.4143 54.0187V54.0187Z" fill="#E9EFFF"/>
<path d="M63.2849 9.83157H11.7956C10.6243 9.83157 9.66626 10.7898 9.66626 11.9609V15.9226H65.4143V11.9609C65.4141 10.7898 64.4558 9.83157 63.2849 9.83157V9.83157Z" fill="#2A428C"/>
<path d="M24.0234 14.629C24.065 14.5604 24.0855 14.4807 24.0855 14.4004V11.3854C24.0855 11.2854 24.0503 11.1887 23.9889 11.1097C23.6866 10.7204 23.803 10.3151 23.9309 10.0679C23.9692 9.99355 23.9857 9.9118 23.9813 9.83167H11.7958C10.6245 9.83167 9.66626 10.7899 9.66626 11.961V15.9227H23.9736C23.9726 15.8448 23.9526 15.7663 23.9147 15.6944C23.6913 15.2711 23.9078 14.8196 24.0234 14.629V14.629Z" fill="#1C2E7A"/>
<path d="M24.0856 14.5358C25.0016 14.5358 25.7442 13.7932 25.7442 12.8773C25.7442 11.9613 25.0016 11.2188 24.0856 11.2188C23.1697 11.2188 22.4271 11.9613 22.4271 12.8773C22.4271 13.7932 23.1697 14.5358 24.0856 14.5358Z" fill="#38C674"/>
<path d="M16.5727 12.8772C16.5727 13.7932 15.8302 14.5357 14.9142 14.5357C13.9982 14.5357 13.2555 13.7932 13.2555 12.8772C13.2555 11.9612 13.998 11.2185 14.9142 11.2185C15.8302 11.2185 16.5727 11.9612 16.5727 12.8772Z" fill="#FF4155"/>
<path d="M19.4999 14.5358C20.4159 14.5358 21.1585 13.7932 21.1585 12.8773C21.1585 11.9613 20.4159 11.2187 19.4999 11.2187C18.584 11.2187 17.8414 11.9613 17.8414 12.8773C17.8414 13.7932 18.584 14.5358 19.4999 14.5358Z" fill="#FFDD40"/>
<path d="M47.8328 14.1422H31.1907C30.4921 14.1422 29.9257 13.5757 29.9257 12.8771C29.9257 12.1784 30.4921 11.612 31.1907 11.612H47.8328C48.5315 11.612 49.0979 12.1784 49.0979 12.8771C49.0979 13.5759 48.5315 14.1422 47.8328 14.1422V14.1422Z" fill="#3C58A0"/>
<path d="M61.3519 14.1422H59.9097C59.2111 14.1422 58.6447 13.5757 58.6447 12.8771C58.6447 12.1784 59.2111 11.612 59.9097 11.612H61.3519C62.0505 11.612 62.617 12.1784 62.617 12.8771C62.617 13.5759 62.0505 14.1422 61.3519 14.1422V14.1422Z" fill="#3C58A0"/>
<path d="M56.3378 14.1422H54.8957C54.1971 14.1422 53.6306 13.5757 53.6306 12.8771C53.6306 12.1784 54.1971 11.612 54.8957 11.612H56.3378C57.0365 11.612 57.6029 12.1784 57.6029 12.8771C57.6029 13.5759 57.0365 14.1422 56.3378 14.1422V14.1422Z" fill="#3C58A0"/>
<rect x="65.3809" y="23.7775" width="4.59827" height="38.0694" fill="#167CC1"/>
<path d="M55.8356 28.0674C55.8356 31.0709 54.6222 33.7982 52.6517 35.7687C50.6815 37.7392 47.9542 38.9526 44.9504 38.9526V28.0674H55.8356Z" fill="#2C2F33"/>
<path d="M19.2914 28.0674C19.2914 31.0709 20.5048 33.7982 22.4752 35.7687C24.4454 37.7392 27.1728 38.9526 30.1765 38.9526V28.0674H19.2914Z" fill="#2C2F33"/>
<path d="M55.8356 45.3203C55.8356 48.3237 54.6222 51.0511 52.6517 53.0215C50.6815 54.992 47.9542 56.2054 44.9504 56.2054V45.3203H55.8356Z" fill="#2C2F33"/>
<path d="M19.2914 45.3203C19.2914 48.3237 20.5048 51.0511 22.4752 53.0215C24.4454 54.992 27.1728 56.2054 30.1765 56.2054V45.3203H19.2914Z" fill="#2C2F33"/>
<path d="M51.1901 24.6368V76.8674C51.1901 77.9736 50.2967 78.8884 49.1902 78.8884H25.9364C24.83 78.8884 23.9365 77.9736 23.9365 76.8674V24.6368C23.9365 23.5304 24.83 22.6372 25.9364 22.6372H49.1902C50.2967 22.6372 51.1901 23.5304 51.1901 24.6368V24.6368Z" fill="#3B3E42"/>
<g filter="url(#filter0_d)">
<path d="M44.451 33.8214C44.451 37.634 41.3587 40.7087 37.5634 40.7087C33.7507 40.7087 30.6758 37.634 30.6758 33.8214C30.6758 30.0263 33.7505 26.9341 37.5634 26.9341C41.3584 26.9341 44.451 30.0263 44.451 33.8214Z" fill="#9CDD05"/>
<path opacity="0.5" d="M33.563 33.0093C34.1819 33.6282 35.4503 33.363 36.3963 32.4171C37.3422 31.4711 37.6074 30.2027 36.9885 29.5838C36.3697 28.965 35.1012 29.2301 34.1553 30.1761C33.2093 31.122 32.9442 32.3905 33.563 33.0093Z" fill="white"/>
<path d="M44.451 50.7628C44.451 54.5755 41.3587 57.6501 37.5634 57.6501C33.7507 57.6501 30.6758 54.5752 30.6758 50.7628C30.6758 46.9677 33.7505 43.8755 37.5634 43.8755C41.3584 43.8755 44.451 46.9677 44.451 50.7628Z" fill="#FFCB46"/>
<path opacity="0.5" d="M33.5622 49.9506C34.181 50.5695 35.4495 50.3043 36.3954 49.3584C37.3414 48.4124 37.6065 47.1439 36.9877 46.5251C36.3689 45.9063 35.1004 46.1714 34.1544 47.1174C33.2085 48.0633 32.9433 49.3318 33.5622 49.9506Z" fill="white"/>
</g>
</g>
<path d="M21.2814 29.6791L23.5774 29.0921C24.5061 28.8548 24.5061 27.5221 23.5774 27.2845L21.2814 26.6975C20.9527 26.6136 20.6962 26.3543 20.6129 26.0226L20.032 23.7037C19.7968 22.7654 18.4772 22.7654 18.242 23.7037L17.6608 26.0226C17.5777 26.3543 17.3213 26.6136 16.9925 26.6975L14.6966 27.2845C13.7678 27.5221 13.7678 28.8548 14.6966 29.0921L16.9925 29.6791C17.3213 29.7633 17.5777 30.0223 17.6608 30.3543L18.242 32.6732C18.4772 33.6112 19.7968 33.6112 20.032 32.6732L20.6129 30.3543C20.6962 30.0223 20.9527 29.7633 21.2814 29.6791V29.6791Z" fill="#F99D1C"/>
<path d="M26.177 35.8034L27.5545 35.4547C28.1118 35.3138 28.1118 34.522 27.5545 34.3809L26.177 34.0322C25.9797 33.9823 25.8258 33.8283 25.7758 33.6312L25.4273 32.2537C25.2862 31.6963 24.4944 31.6963 24.3533 32.2537L24.0046 33.6312C23.9547 33.8283 23.8009 33.9823 23.6036 34.0322L22.226 34.3809C21.6688 34.522 21.6688 35.3138 22.226 35.4547L23.6036 35.8034C23.8009 35.8534 23.9547 36.0073 24.0046 36.2045L24.3533 37.5821C24.4944 38.1393 25.2862 38.1393 25.4273 37.5821L25.7758 36.2045C25.8258 36.0073 25.9797 35.8534 26.177 35.8034V35.8034Z" fill="#F99D1C"/>
<defs>
<filter id="filter0_d" x="26.6758" y="26.9341" width="21.7751" height="55.6575" filterUnits="userSpaceOnUse" color-interpolation-filters="sRGB">
<feFlood flood-opacity="0" result="BackgroundImageFix"/>
<feColorMatrix in="SourceAlpha" type="matrix" values="0 0 0 0 0 0 0 0 0 0 0 0 0 0 0 0 0 0 127 0" result="hardAlpha"/>
<feOffset dy="4"/>
<feGaussianBlur stdDeviation="2"/>
<feComposite in2="hardAlpha" operator="out"/>
<feColorMatrix type="matrix" values="0 0 0 0 0 0 0 0 0 0 0 0 0 0 0 0 0 0 0.25 0"/>
<feBlend mode="normal" in2="BackgroundImageFix" result="effect1_dropShadow"/>
<feBlend mode="normal" in="SourceGraphic" in2="effect1_dropShadow" result="shape"/>
</filter>
</defs>
</svg>
