<svg width="75" height="75" viewBox="0 0 75 75" fill="none" xmlns="http://www.w3.org/2000/svg">
<path d="M75 37.5C75 48.5356 70.2335 58.457 62.6478 65.3172C60.6966 67.0836 58.5583 68.6463 56.2654 69.9738C53.7151 71.4506 50.9737 72.6351 48.0886 73.4831C46.6684 73.9008 45.2145 74.2361 43.7296 74.4845C42.4038 74.7059 41.0568 74.8593 39.6887 74.9371C38.9648 74.9788 38.2364 75 37.5 75C35.4137 75 33.3687 74.8301 31.3763 74.5011C30.4945 74.3557 29.6236 74.1812 28.763 73.9746C26.1074 73.3423 23.5622 72.4274 21.1607 71.2607C18.4502 69.9474 15.9182 68.3172 13.6208 66.4147C11.4887 64.6534 9.55582 62.6604 7.85809 60.4729C2.93255 54.1271 0 46.1558 0 37.5C0 16.7896 16.7891 1.52588e-05 37.5 1.52588e-05C58.2104 1.52588e-05 75 16.7896 75 37.5Z" fill="#F7A635"/>
<path d="M62.6479 65.3172C60.6966 67.0836 58.5583 68.6463 56.2655 69.9738C55.8472 69.3415 55.6023 68.5805 55.6023 67.7634C55.6023 65.5655 57.3687 63.7774 59.5408 63.7774C60.8019 63.7774 61.9286 64.3805 62.6479 65.3172V65.3172Z" fill="#FF9214"/>
<path d="M59.9671 34.2339C54.4659 34.2339 50.6316 37.3827 50.6316 40.2088C50.6316 42.1149 52.2338 43.2953 53.7181 43.2953C54.9231 43.2953 55.604 42.5423 56.1511 41.9375C56.8526 41.1621 57.5782 40.3599 59.8252 40.3599C61.4308 40.3599 64.1242 40.832 64.1242 43.9963C64.1242 46.6828 62.2027 48.2872 60.5073 49.7034C60.1239 50.0233 59.7617 50.326 59.4258 50.6361C57.9804 51.9745 56.5024 54.0436 56.5024 59.2409C56.5024 61.4456 57.5089 62.5643 59.4939 62.5643C61.8067 62.5643 62.6273 61.1561 62.6273 59.951C62.6273 56.9413 62.6931 55.6601 64.3347 54.1712L64.3874 54.1203C64.6105 53.8903 64.9104 53.6167 65.2583 53.3003C67.2496 51.4864 70.5815 48.4509 70.5815 43.5225C70.5815 37.9669 66.3163 34.2339 59.9671 34.2339V34.2339Z" fill="#FF9214"/>
<path d="M53.2225 63.8786C53.2225 68.6525 50.0937 71.6526 48.0887 73.4831C46.6685 73.9008 45.2145 74.2361 43.7296 74.4845C42.4038 74.7059 41.0569 74.8593 39.6887 74.9371C40.2489 72.9475 41.1644 71.8271 42.0674 70.9911C42.4027 70.6822 42.7655 70.3789 43.1494 70.059C44.8437 68.6434 46.7663 67.0378 46.7663 64.3519C46.7663 61.1876 44.0724 60.7149 42.4668 60.7149C40.2197 60.7149 39.4942 61.5172 38.7921 62.2931C38.2456 62.8973 37.5641 63.6503 36.3596 63.6503C34.8748 63.6503 33.2726 62.4705 33.2726 60.5633C33.2726 57.7377 37.1064 54.5895 42.6092 54.5895C48.9567 54.5895 53.2225 58.3225 53.2225 63.8786V63.8786Z" fill="#FF9214"/>
<path d="M43.7295 65.8562V70.1403C39.9873 72.2649 35.8423 73.7617 31.4386 74.4919C31.4174 74.4947 31.3974 74.4982 31.3762 74.501C24.698 73.4053 18.6155 70.546 13.6207 66.4146C11.4887 64.6534 9.55576 62.6604 7.85803 60.4729C9.50941 56.535 12.918 53.5131 17.1043 52.3945C17.3217 52.3361 17.5409 52.2829 17.7629 52.2354C18.3534 52.1067 18.9594 52.018 19.5762 51.9676C19.9527 51.9367 20.3327 51.9213 20.7166 51.9213H29.7918C30.8063 51.9213 31.7951 52.0288 32.7472 52.2354C32.8027 52.2463 32.8577 52.2583 32.9109 52.2703C33.0717 52.3075 33.2324 52.347 33.3904 52.3899C33.395 52.3916 33.3978 52.3916 33.4024 52.3928C34.9714 52.8122 36.4316 53.4994 37.7294 54.4012C41.3555 56.9172 43.7295 61.1097 43.7295 65.8562Z" fill="#142766"/>
<path d="M43.7296 65.8562V74.4844C41.7028 74.8238 39.6228 75 37.5 75C28.4265 75 20.1061 71.7779 13.6207 66.4146V65.8562C13.6207 59.4091 17.9987 53.9846 23.945 52.3945C24.1625 52.3361 24.381 52.2829 24.6031 52.2354C25.1936 52.1067 25.8001 52.018 26.4169 51.9676C26.7934 51.9367 27.1728 51.9213 27.5573 51.9213H29.7918C30.8063 51.9213 31.7951 52.0288 32.7472 52.2354C32.8027 52.2463 32.8577 52.2583 32.9109 52.2703C33.0717 52.3075 33.2325 52.347 33.3904 52.3899C33.395 52.3916 33.3978 52.3916 33.4024 52.3928C34.9714 52.8122 36.4317 53.4994 37.7294 54.4012C41.3555 56.9172 43.7296 61.1097 43.7296 65.8562V65.8562Z" fill="#203681"/>
<path d="M33.4362 52.2354L33.4025 52.3928L28.763 73.9746C26.1074 73.3423 23.5623 72.4274 21.1607 71.2606L17.1044 52.3945L17.0712 52.2354H33.4362Z" fill="#F2EFEA"/>
<path d="M25.2531 57.6262L18.9789 61.1132L17.0706 52.2354L20.969 49.9398" fill="#D3DCFB"/>
<path d="M25.2531 57.6262L31.5267 61.1132L33.4356 52.2354L29.5371 49.9398" fill="#D3DCFB"/>
<path d="M6.52087 48.5619V27.5448C6.52087 25.4093 6.87736 23.3168 7.58002 21.3261C10.2104 13.8411 17.3132 8.81026 25.2543 8.81026C26.2379 8.81026 27.2192 8.88636 28.1725 9.03685C32.5356 9.71892 36.5382 11.9459 39.4404 15.3076C42.3735 18.7054 43.9883 23.0513 43.9883 27.5448V48.5619" fill="#142766"/>
<path d="M14.2273 28.3653C14.2273 35.7994 18.58 44.4002 20.9707 48.5619H6.52026V27.5448C6.52026 25.4099 6.87732 23.3174 7.57941 21.3261C10.1938 13.8846 17.2314 8.86861 25.1175 8.81197C19.3577 8.95559 14.2273 18.1961 14.2273 28.3653Z" fill="#102364"/>
<path d="M30.2267 46.5534V52.6548C30.2267 54.8887 28.7538 56.777 26.7248 57.4041C26.2607 57.5483 25.7658 57.6261 25.2537 57.6261C22.5082 57.6261 20.2823 55.4008 20.2823 52.6548V46.5534H30.2267Z" fill="#EB867A"/>
<path d="M30.2267 52.2686V52.6549C30.2267 54.8887 28.7539 56.777 26.7249 57.4042C24.8944 56.8417 23.5182 55.2498 23.2642 53.3026C23.596 53.3226 23.9302 53.3329 24.2655 53.3329C25.2062 53.3329 26.1286 53.2585 27.027 53.1109C28.1336 52.9329 29.2031 52.648 30.2267 52.2686V52.2686Z" fill="#F7A79E"/>
<path d="M11.6158 36.553C11.6158 38.855 9.93406 40.7633 7.73279 41.1175C7.49189 41.1564 7.2447 41.177 6.99178 41.177C4.43746 41.177 2.3678 39.1073 2.3678 36.553C2.3678 33.9987 4.43746 31.929 6.99178 31.929C7.2447 31.929 7.49189 31.9496 7.73279 31.9885C9.93406 32.3427 11.6158 34.251 11.6158 36.553Z" fill="#F7A79E"/>
<path d="M11.6157 36.553C11.6157 38.855 9.93402 40.7633 7.73275 41.1175C7.33278 39.6629 7.11877 38.1329 7.11877 36.553C7.11877 34.9732 7.33221 33.4431 7.73275 31.9885C9.93402 32.3427 11.6157 34.251 11.6157 36.553Z" fill="#EB867A"/>
<path d="M8.64429 36.553C8.64429 37.4657 7.90443 38.2056 6.99176 38.2056C6.07909 38.2056 5.33923 37.4657 5.33923 36.553C5.33923 35.6404 6.07909 34.9005 6.99176 34.9005C7.90443 34.9005 8.64429 35.6404 8.64429 36.553V36.553Z" fill="#EB867A"/>
<path d="M37.1269 30.649V46.5426C34.6705 48.8875 31.5205 50.512 28.0152 51.0767C27.9877 51.0813 27.9585 51.0859 27.931 51.0905C27.0602 51.2295 26.1664 51.2982 25.2543 51.2982C15.7534 51.2982 8.05151 43.5963 8.05151 34.096V27.5448C8.05151 26.706 8.11102 25.8814 8.22775 25.0746C12.3202 28.018 18.1887 27.7273 21.928 24.1928C23.1663 23.0232 24.0263 21.6305 24.5133 20.1536C24.7839 22.7406 25.9672 25.2583 28.0644 27.2404C30.5609 29.5973 33.8591 30.7348 37.1269 30.649V30.649Z" fill="#EB867A"/>
<path d="M37.1269 30.649V46.5426C34.6704 48.8875 31.5204 50.512 28.0151 51.0767C27.9876 51.0813 27.9585 51.0859 27.931 51.0905C19.7027 49.8047 13.4084 42.6842 13.4084 34.096V27.5448C13.4084 27.3703 13.4119 27.1975 13.4176 27.0247C16.4514 27.3354 19.6014 26.3924 21.928 24.1928C23.1663 23.0232 24.0263 21.6305 24.5132 20.1536C24.7839 22.7406 25.9672 25.2583 28.0643 27.2404C30.5609 29.5973 33.859 30.7348 37.1269 30.649V30.649Z" fill="#F7A79E"/>
<path d="M20.8266 33.8596C20.8266 34.9371 19.9528 35.8109 18.8748 35.8109C17.7967 35.8109 16.923 34.9371 16.923 33.8596C16.923 32.7816 17.7967 31.9079 18.8748 31.9079C19.9528 31.9079 20.8266 32.7816 20.8266 33.8596Z" fill="#142766"/>
<path d="M33.5878 33.8596C33.5878 34.9371 32.7141 35.8109 31.636 35.8109C30.5586 35.8109 29.6848 34.9371 29.6848 33.8596C29.6848 32.7816 30.5586 31.9079 31.636 31.9079C32.7141 31.9079 33.5878 32.7816 33.5878 33.8596Z" fill="#142766"/>
<path d="M27.2072 38.7731H23.3036C22.839 38.7731 22.4619 38.3961 22.4619 37.9314C22.4619 37.4662 22.839 37.0897 23.3036 37.0897H27.2072C27.6718 37.0897 28.0489 37.4662 28.0489 37.9314C28.0489 38.3961 27.6718 38.7731 27.2072 38.7731Z" fill="#EB867A"/>
<path d="M25.2554 44.0993C23.8151 44.0993 22.3743 43.7382 21.0611 43.0167C20.6909 42.813 20.5559 42.3478 20.7596 41.977C20.9633 41.6067 21.4285 41.4717 21.7987 41.6754C23.9634 42.865 26.548 42.865 28.7121 41.6754C29.0823 41.4717 29.5481 41.6067 29.7518 41.977C29.9555 42.3478 29.8199 42.813 29.4497 43.0167C28.1364 43.7382 26.6962 44.0993 25.2554 44.0993Z" fill="#142766"/>
<path d="M20.4283 33.5152C20.4283 33.977 20.0541 34.3512 19.5923 34.3512C19.1305 34.3512 18.7557 33.977 18.7557 33.5152C18.7557 33.0534 19.1305 32.6786 19.5923 32.6786C20.0541 32.6786 20.4283 33.0534 20.4283 33.5152Z" fill="white"/>
<path d="M33.2857 33.5152C33.2857 33.977 32.9109 34.3512 32.4492 34.3512C31.9874 34.3512 31.6132 33.977 31.6132 33.5152C31.6132 33.0534 31.9874 32.6786 32.4492 32.6786C32.9109 32.6786 33.2857 33.0534 33.2857 33.5152Z" fill="white"/>
<path d="M36.9638 38.6129C36.9638 39.7963 36.0042 40.7558 34.8209 40.7558C33.6376 40.7558 32.678 39.7963 32.678 38.6129C32.678 37.4296 33.6376 36.47 34.8209 36.47C36.0042 36.47 36.9638 37.4296 36.9638 38.6129V38.6129Z" fill="#EB867A"/>
<path d="M17.831 38.6129C17.831 39.7963 16.872 40.7558 15.6887 40.7558C14.5048 40.7558 13.5458 39.7963 13.5458 38.6129C13.5458 37.4296 14.5048 36.47 15.6887 36.47C16.872 36.47 17.831 37.4296 17.831 38.6129V38.6129Z" fill="#EB867A"/>
<path d="M74.057 24.6306C73.9317 25.2812 73.6822 25.8843 73.3343 26.4153C72.5435 27.6249 71.2406 28.462 69.7437 28.6469C64.5384 29.2872 59.3308 29.567 54.1254 29.4857L44.9616 34.8478C44.224 35.2776 43.2982 34.7466 43.2982 33.894V28.7928C42.8753 28.7453 42.453 28.6989 42.0319 28.6469C39.8678 28.3808 38.1197 26.7506 37.7112 24.6094C36.4575 18.029 36.4592 11.4493 37.7157 4.8689C38.1231 2.73401 39.8769 1.11753 42.0336 0.852599C42.7666 0.76219 43.4984 0.679793 44.2314 0.603117C52.7344 -0.276933 61.2379 -0.193964 69.7392 0.852599C71.8975 1.11753 73.6485 2.73401 74.057 4.8689C75.3136 11.4555 75.3136 18.0428 74.057 24.6306Z" fill="#78297D"/>
<path d="M73.3343 26.4153C72.5436 27.6249 71.2406 28.462 69.7438 28.6469C64.5384 29.2872 59.3308 29.567 54.1254 29.4857L44.9616 34.8478C44.6417 35.0344 44.2881 35.0407 43.9883 34.9182C43.5963 34.7586 43.2982 34.3775 43.2982 33.894V28.7928C42.8753 28.7453 42.453 28.6989 42.0319 28.6469C39.8678 28.3808 38.1197 26.7506 37.7112 24.6094C36.961 20.6726 36.6612 16.7359 36.8099 12.7991C36.9078 10.1561 37.2105 7.51249 37.7157 4.8689C38.1232 2.73401 39.877 1.11753 42.0336 0.8526C42.7666 0.762192 43.4984 0.679794 44.2314 0.603119C58.0622 3.1088 69.2511 13.2019 73.3343 26.4153V26.4153Z" fill="#78297D"/>
<path d="M54.827 21.9572C53.5584 21.9572 52.5261 23.0021 52.5261 24.2861C52.5261 25.5701 53.5584 26.6144 54.827 26.6144C56.0955 26.6144 57.1278 25.5701 57.1278 24.2861C57.1278 23.0021 56.0955 21.9572 54.827 21.9572V21.9572Z" fill="white"/>
<path d="M55.0758 4.69781C51.8618 4.69781 49.6216 6.53745 49.6216 8.18826C49.6216 9.30177 50.5577 9.99128 51.4246 9.99128C52.129 9.99128 52.5267 9.55183 52.8465 9.1982C53.2562 8.74502 53.6802 8.27638 54.9929 8.27638C55.9307 8.27638 57.5043 8.55219 57.5043 10.401C57.5043 11.9705 56.3816 12.9078 55.3911 13.7352C55.1674 13.9223 54.9557 14.0991 54.7594 14.28C53.9148 15.0622 53.0514 16.2707 53.0514 19.3073C53.0514 20.5954 53.6396 21.2488 54.7995 21.2488C56.1504 21.2488 56.6299 20.426 56.6299 19.7222C56.6299 17.9638 56.6683 17.2154 57.6279 16.345L57.6582 16.3159C57.7887 16.1814 57.9638 16.0217 58.1669 15.8363C59.3302 14.7766 61.2768 13.0034 61.2768 10.124C61.2768 6.87849 58.7849 4.69781 55.0758 4.69781V4.69781Z" fill="white"/>
<path d="M43.9882 27.5448V34.9182C43.5963 34.7586 43.2982 34.3775 43.2982 33.894V28.7928C42.8753 28.7453 42.453 28.6989 42.0319 28.6469C39.8678 28.3808 38.1197 26.7506 37.7112 24.6094C36.961 20.6726 36.6612 16.7359 36.8099 12.7991C37.7604 13.543 38.6416 14.3835 39.4409 15.3076C42.3735 18.706 43.9882 23.0513 43.9882 27.5448V27.5448Z" fill="#78297D"/>
</svg>
