<svg width="76" height="76" viewBox="0 0 76 76" fill="none" xmlns="http://www.w3.org/2000/svg">
<path d="M75.9984 37.6469L75.9961 37.6492C55.0688 58.7719 20.9314 58.7719 0.00408398 37.6492L0.00170898 37.6469C0.191709 16.8229 17.1302 0 38.0001 0C58.8699 0 75.8084 16.8229 75.9984 37.6469V37.6469Z" fill="#F99D1C"/>
<path d="M75.9969 37.6469C55.07 58.7701 20.9302 58.7701 0.0032959 37.6469C0.0032959 37.5597 0.00492871 37.4727 0.0080459 37.3856C0.0301631 35.9005 0.13778 34.4375 0.32778 32.9999C0.554147 31.2678 0.899413 29.572 1.35215 27.9221C2.2024 24.822 3.43576 21.8785 4.99851 19.1489C5.46401 19.9628 5.95965 20.7575 6.48363 21.5317C11.8257 29.4469 20.0717 35.2402 29.6938 37.3856C32.3664 37.9825 35.1468 38.2976 37.9999 38.2976C40.853 38.2976 43.6334 37.9825 46.306 37.3856C55.9279 35.2402 64.1739 29.4467 69.5161 21.5317C70.0401 20.7575 70.5357 19.9626 71.0012 19.1489C73.3952 23.332 75.0181 28.014 75.6721 33.0015C75.8621 34.4391 75.9698 35.9021 75.992 37.3858C75.9953 37.4727 75.9969 37.5599 75.9969 37.6469Z" fill="#F99D1C"/>
<path d="M76 37.3855V37.9999C76 47.6835 72.3789 56.5218 66.4145 63.2319H9.5855C3.62113 56.5218 0 47.6835 0 37.9999V37.3855L7.78525 21.0724H68.2133L76 37.3855Z" fill="#FFEDCC"/>
<path d="M76 37.3855V37.9999C76 41.9298 75.4031 45.7218 74.2964 49.2875C73.9465 50.4149 73.5442 51.5184 73.0963 52.5983C71.4639 56.5187 69.1934 60.1064 66.4146 63.2319H38V21.0725H68.2131L76 37.3855Z" fill="#F9E1B9"/>
<path d="M72.3678 54.2354C70.813 57.5208 68.8022 60.5465 66.4145 63.2319H9.58546C7.19784 60.5465 5.18696 57.5208 3.63208 54.2354H72.3678Z" fill="#F9D6A2"/>
<path d="M72.3679 54.2354C70.813 57.5208 68.8023 60.5465 66.4145 63.2319H38V54.2354H72.3679Z" fill="#EFC792"/>
<path d="M75.9921 37.3855H0.0078125C0.0300781 35.9004 0.137695 34.4374 0.327695 32.9998L5.53845 22.5957C5.76006 22.1555 6.08781 21.7913 6.4837 21.5317C6.92708 21.2372 7.45269 21.0725 8.00369 21.0725H67.9946C68.5456 21.0725 69.0728 21.2372 69.5162 21.5317C69.9121 21.7929 70.2398 22.1555 70.4598 22.5957L75.6722 33.0013C75.8622 34.439 75.9698 35.902 75.9921 37.3855Z" fill="#3B407A"/>
<path d="M75.9921 37.3855H38V21.0725H67.9946C68.5456 21.0725 69.0729 21.2372 69.5163 21.5317C69.9121 21.7929 70.2399 22.1555 70.4599 22.5957L75.6722 33.0013C75.8622 34.439 75.9699 35.902 75.9921 37.3855V37.3855Z" fill="#2F316E"/>
<path d="M54.5015 21.0725V63.2319H21.4985V21.0725L38 4.57104L54.5015 21.0725Z" fill="white"/>
<path d="M54.5015 21.0725V63.2319H38V4.57104L54.5015 21.0725Z" fill="#FFEDCC"/>
<path d="M59.2892 24.0051L57.434 25.8602C57.0806 26.2137 56.5076 26.2137 56.1542 25.8602L38 7.70604L19.8458 25.8602C19.4923 26.2137 18.9194 26.2137 18.5659 25.8602L16.7108 24.0051C16.3573 23.6516 16.3573 23.0787 16.7108 22.7252L36.5591 2.87677C36.9564 2.47941 37.4775 2.27991 38 2.27991C38.5225 2.27991 39.0433 2.47941 39.4408 2.87677L59.2893 22.7252C59.6426 23.0787 59.6426 23.6516 59.2892 24.0051Z" fill="#464D7F"/>
<path d="M59.2892 24.0051L57.434 25.8602C57.0806 26.2137 56.5076 26.2137 56.1542 25.8602L38 7.70604V2.27991C38.5225 2.27991 39.0434 2.47941 39.4409 2.87677L59.2894 22.7252C59.6426 23.0787 59.6426 23.6516 59.2892 24.0051Z" fill="#3B407A"/>
<path d="M66.4146 63.2321C64.4148 65.4836 62.1507 67.4944 59.6727 69.2187C53.5247 73.4937 46.0561 76.0001 38.0001 76.0001C29.9441 76.0001 22.4754 73.4937 16.3275 69.2187C13.8496 67.4944 11.5853 65.4836 9.58557 63.2321H66.4146Z" fill="#5B638C"/>
<path d="M66.4145 63.2321C64.4148 65.4836 62.1506 67.4944 59.6726 69.2187C53.5246 73.4937 46.056 76.0001 38 76.0001V63.2321H66.4145Z" fill="#464D7F"/>
<path d="M3.21509 42.9938H9.50928V49.288H3.21509V42.9938Z" fill="#234177"/>
<path d="M12.4625 42.9938H18.7567V49.288H12.4625V42.9938Z" fill="#234177"/>
<path d="M57.2434 42.9938H63.5376V49.288H57.2434V42.9938Z" fill="#212559"/>
<path d="M46.7084 45.2421V63.232H29.2916V45.2421C29.2916 43.217 30.9335 41.5751 32.9586 41.5751H43.0414C45.0664 41.5751 46.7084 43.2171 46.7084 45.2421Z" fill="#D86648"/>
<path d="M46.7084 45.2421V63.232H38V41.5751H43.0414C45.0664 41.5751 46.7084 43.2171 46.7084 45.2421Z" fill="#C55733"/>
<path d="M36.5322 41.5751H39.4677V63.232H36.5322V41.5751Z" fill="#C55732"/>
<path d="M38 41.5751H39.4678V63.232H38V41.5751Z" fill="#B74A2C"/>
<path d="M29.2916 58.9761H46.7082V63.2321H29.2916V58.9761Z" fill="#464D7F"/>
<path d="M38 58.9761H46.7084V63.2321H38V58.9761Z" fill="#3B407A"/>
<path d="M31.4201 63.232H27.1648V52.9448C27.1648 52.4105 27.5981 51.9772 28.1325 51.9772H30.4524C30.9868 51.9772 31.4201 52.4105 31.4201 52.9448V63.232Z" fill="#F9D6A2"/>
<path d="M48.8352 63.232H44.58V52.9448C44.58 52.4105 45.0132 51.9772 45.5476 51.9772H47.8676C48.4019 51.9772 48.8352 52.4105 48.8352 52.9448V63.232Z" fill="#EFC792"/>
<path d="M41.2288 34.2497C45.5136 32.4737 47.5473 27.5604 45.7712 23.2757C43.9952 18.9909 39.0819 16.9572 34.7972 18.7332C30.5124 20.5093 28.4787 25.4225 30.2547 29.7073C32.0308 33.992 36.944 36.0258 41.2288 34.2497Z" fill="#8B3EA0"/>
<path d="M46.3964 26.5002C46.3964 31.1362 42.6375 34.8966 38 34.8966V18.1039C42.6376 18.1039 46.3964 21.8626 46.3964 26.5002Z" fill="#7D2A95"/>
<path d="M38 31.7554C40.9023 31.7554 43.2551 29.4026 43.2551 26.5002C43.2551 23.5979 40.9023 21.2451 38 21.2451C35.0977 21.2451 32.7449 23.5979 32.7449 26.5002C32.7449 29.4026 35.0977 31.7554 38 31.7554Z" fill="#9650AA"/>
<path d="M43.2551 26.5003C43.2551 29.4025 40.9023 31.7554 38 31.7554V21.2453C40.9023 21.2451 43.2551 23.598 43.2551 26.5003V26.5003Z" fill="#8E3EA5"/>
<path d="M20.3838 50.1679V51.718C20.3838 52.2041 19.9896 52.5984 19.5035 52.5984H2.90532C2.45407 51.5185 2.05343 50.415 1.7052 49.2876H19.5035C19.9896 49.2876 20.3838 49.6819 20.3838 50.1679Z" fill="#F9D6A2"/>
<path d="M74.2964 49.2876C73.9465 50.415 73.5443 51.5185 73.0963 52.5984H56.867C56.3825 52.5984 55.9883 52.2041 55.9883 51.718V50.1679C55.9883 49.6817 56.3825 49.2875 56.867 49.2875H74.2964V49.2876Z" fill="#EFC792"/>
<path fill-rule="evenodd" clip-rule="evenodd" d="M35.0668 27.7982C34.9481 29.1142 36.1597 30.513 37.473 30.7659V30.4553V30.3777H37.4765V29.0105C36.8911 28.2498 35.9599 27.7176 35.0668 27.7982V27.7982ZM34.7802 32.6663H37.473V33.0929H34.7802V32.6663V32.6663ZM37.8825 30.4553V30.3777V23.4347C36.975 22.4777 37.0272 20.546 38.0393 19.7014C39.0513 20.546 39.1035 22.4776 38.1961 23.4346V24.1987C38.6784 23.1296 39.8586 22.2666 40.9789 22.3677C41.1091 23.8091 39.6433 25.3498 38.1961 25.3757V26.9295C38.6785 25.8604 39.8587 24.9973 40.979 25.0984C41.1091 26.5398 39.6433 28.0806 38.1961 28.1064V29.6292C38.6785 28.5601 39.8587 27.6971 40.979 27.7982C41.1091 29.2395 39.6433 30.7803 38.1961 30.8062V32.6663H41.2657V33.0929H38.1961V33.5608H37.8841V30.4553H37.8825V30.4553ZM35.0668 22.3677C34.9479 23.6849 36.1619 25.085 37.4765 25.3362V23.58C36.8911 22.8193 35.9599 22.2871 35.0668 22.3677ZM35.0668 25.0984C34.9479 26.4157 36.1619 27.8158 37.4765 28.0669V26.3108C36.8911 25.55 35.9599 25.0179 35.0668 25.0984Z" fill="white"/>
</svg>
